<svg xmlns="http://www.w3.org/2000/svg" version="1.1" xmlns:xlink="http://www.w3.org/1999/xlink" xmlns:svgjs="http://svgjs.dev/svgjs" width="2000" height="1500" viewBox="0 0 2000 1500"><rect width="2000" height="1500" fill="#ffffff"></rect><g transform="matrix(0.75,0,0,0.75,249.090909090909,282.7536437246963)"><svg viewBox="0 0 396 247" data-background-color="#ffffff" preserveAspectRatio="xMidYMid meet" height="1247" width="2000" xmlns="http://www.w3.org/2000/svg" xmlns:xlink="http://www.w3.org/1999/xlink"><g id="tight-bounds" transform="matrix(1,0,0,1,0.2400000000000091,-0.09999999999999432)"><svg viewBox="0 0 395.52 247.2" height="247.2" width="395.52"><g><svg></svg></g><g><svg viewBox="0 0 395.52 247.2" height="247.2" width="395.52"><g transform="matrix(1,0,0,1,132.74710227272726,37.08)"><svg viewBox="0 0 130.02579545454546 173.04" height="173.04" width="130.02579545454546"><g><svg viewBox="0 0 130.02579545454546 173.04" height="173.04" width="130.02579545454546"><g><svg viewBox="0 0 130.02579545454546 173.04" height="173.04" width="130.02579545454546"><g><svg viewBox="0 0 130.02579545454546 173.04" height="173.04" width="130.02579545454546"><g id="textblocktransform"><svg viewBox="0 0 130.02579545454546 173.04" height="173.04" width="130.02579545454546" id="textblock"><g><svg viewBox="0 0 130.02579545454546 173.04" height="173.04" width="130.02579545454546"><g transform="matrix(1,0,0,1,0,0)"><svg width="130.02579545454546" viewBox="2 -35 26.450000762939453 35.20000076293945" height="173.04" data-palette-color="#0063db"><path d="M19.4-14.4L28.4-14.45Q28.4-14.4 28.45-13.7L28.45-13.7 26.45-13.45 26.45-1.05Q25.6-0.75 21.93-0.28 18.25 0.2 15.95 0.2 13.65 0.2 11.95-0.13 10.25-0.45 8.35-1.5 6.45-2.55 5.13-4.28 3.8-6 2.9-9 2-12 2-16L2-16Q2-24.85 6.05-29.8L6.05-29.8Q10.3-35 17.65-35L17.65-35Q19.9-35 22.53-34.58 25.15-34.15 26.25-33.75L26.25-33.75 26.85-26.55 25.9-26.2 25.25-31.55Q21.2-34.3 17.65-34.3L17.65-34.3Q12-34.3 8.7-29.6 5.4-24.9 5.4-16L5.4-16Q5.4-5.2 10.35-2.05L10.35-2.05Q11.85-1.1 13.13-0.83 14.4-0.55 16.7-0.55 19-0.55 23.45-1.2L23.45-1.2 23.65-12.7Q23.65-13.3 23.05-13.4L23.05-13.4 19.45-13.65Q19.4-13.95 19.4-14.4L19.4-14.4Z" opacity="1" transform="matrix(1,0,0,1,0,0)" fill="#0063db" class="wordmark-text-0" data-fill-palette-color="primary" id="text-0"></path></svg></g></svg></g></svg></g></svg></g></svg></g></svg></g></svg></g><g><path xmlns="http://www.w3.org/2000/svg" d="M0 247.2v-247.2h395.52v247.2zM379.915 231.595v-215.99h-364.31v215.99z" fill="#0063db" fill-rule="nonzero" stroke="none" stroke-width="1" stroke-linecap="butt" stroke-linejoin="miter" stroke-miterlimit="10" stroke-dasharray="" stroke-dashoffset="0" font-family="none" font-weight="none" font-size="none" text-anchor="none" style="mix-blend-mode: normal" data-fill-palette-color="tertiary"></path></g></svg></g><defs></defs></svg><rect width="395.52" height="247.2" fill="none" stroke="none" visibility="hidden"></rect></g></svg></g></svg>